<svg width="1014" height="664" viewBox="0 0 1014 664" fill="none" xmlns="http://www.w3.org/2000/svg">
<path d="M804 0.319025C887.828 7.13355 945 32.319 983.5 119.319C1022 206.319 1012.5 657.319 1012.5 657.319H66C66 657.319 111.525 639.943 134 589.819C161.945 527.496 103.5 459.819 134 358.319C164.5 256.819 249.488 291.971 329 248.819C428.5 194.819 322.434 146.345 367 90.319C402 46.319 420.257 20.319 463.5 20.319C533 20.319 596.5 53.8191 643.5 55.3191C690.5 56.8191 739.181 -4.95023 804 0.319025Z" fill="#E7DDA6"/>
<path fill-rule="evenodd" clip-rule="evenodd" d="M1012 648.509V661.13C904.551 662.49 762.175 663.319 606 663.319C271.315 663.319 0 659.513 0 654.819C0 650.125 271.315 646.319 606 646.319C762.175 646.319 904.551 647.148 1012 648.509Z" fill="#B43D03"/>
<rect x="702" y="39.319" width="162" height="64" fill="#E2E2E2"/>
<rect x="702" y="39.319" width="122" height="64" fill="white"/>
<ellipse cx="742.5" cy="82.819" rx="34.5" ry="35.5" fill="#452D21"/>
<path d="M788 131.319H1012V656.319H788V131.319Z" fill="#E7DDA6"/>
<rect x="277" y="131.319" width="514" height="525" fill="#FFF4BD"/>
<rect x="301" y="190.319" width="462" height="408" fill="white"/>
<rect x="316" y="203.319" width="432" height="382" fill="#452D21"/>
<rect x="447" y="267.319" width="301" height="281" fill="#331F16"/>
<rect width="10" height="382" transform="matrix(-1 0 0 1 544 203.319)" fill="#6A4938"/>
<rect width="25" height="382" transform="matrix(-1 0 0 1 341 203.319)" fill="#6A4938"/>
<rect width="10" height="407" transform="matrix(1.19249e-08 -1 -1 -1.19249e-08 748 357.319)" fill="#6A4938"/>
<rect width="10" height="407" transform="matrix(1.19249e-08 -1 -1 -1.19249e-08 748 432.319)" fill="#6A4938"/>
<rect width="10" height="407" transform="matrix(1.19249e-08 -1 -1 -1.19249e-08 748 509.319)" fill="#6A4938"/>
<rect width="10" height="382" transform="matrix(-1 0 0 1 537 203.319)" fill="white"/>
<rect x="865" y="241.319" width="103" height="399" fill="#452D21"/>
<rect x="865" y="275.319" width="61" height="325" fill="#2A1911"/>
<rect width="103" height="14" transform="matrix(-1 0 0 1 968 241.319)" fill="white"/>
<rect width="103" height="19" transform="matrix(-1 0 0 1 968 621.319)" fill="white"/>
<rect width="103" height="32" transform="matrix(-1 0 0 1 968 422.319)" fill="white"/>
<rect width="15" height="399" transform="matrix(-1 0 0 1 968 241.319)" fill="#E2E2E2"/>
<rect width="167" height="18" transform="matrix(-1 0 0 1 1002 207.319)" fill="white"/>
<rect width="144" height="18" transform="matrix(-1 0 0 1 1002 207.319)" fill="#E2E2E2"/>
<rect width="56" height="18" transform="matrix(-1 0 0 1 892 638.319)" fill="#E2E2E2"/>
<circle cx="335.5" cy="564.819" r="36.5" fill="#768A05"/>
<ellipse cx="329.5" cy="552.319" rx="21.5" ry="17" fill="#94AB13"/>
<ellipse cx="425" cy="574.819" rx="34" ry="33.5" fill="#768A05"/>
<ellipse cx="419.411" cy="563.346" rx="20.0274" ry="15.6027" fill="#94AB13"/>
<ellipse cx="519.5" cy="580.819" rx="35.5" ry="37.5" fill="#768A05"/>
<ellipse cx="519.5" cy="580.819" rx="35.5" ry="37.5" fill="#768A05"/>
<ellipse cx="513.664" cy="567.977" rx="20.911" ry="17.4658" fill="#94AB13"/>
<ellipse cx="546.5" cy="614.319" rx="19.5" ry="16" fill="#768A05"/>
<ellipse cx="546.5" cy="614.319" rx="19.5" ry="16" fill="#768A05"/>
<ellipse cx="543.294" cy="608.839" rx="11.4863" ry="7.45205" fill="#94AB13"/>
<ellipse cx="564.5" cy="593.319" rx="20.5" ry="22" fill="#768A05"/>
<ellipse cx="564.5" cy="593.319" rx="20.5" ry="22" fill="#768A05"/>
<ellipse cx="561.13" cy="585.785" rx="12.0753" ry="10.2466" fill="#94AB13"/>
<ellipse cx="589.5" cy="570.319" rx="21.5" ry="20" fill="#768A05"/>
<ellipse cx="589.5" cy="570.319" rx="21.5" ry="20" fill="#768A05"/>
<ellipse cx="585.966" cy="563.47" rx="12.6644" ry="9.31507" fill="#94AB13"/>
<ellipse cx="623.5" cy="585.819" rx="21.5" ry="22.5" fill="#768A05"/>
<ellipse cx="623.5" cy="585.819" rx="21.5" ry="22.5" fill="#768A05"/>
<ellipse cx="619.966" cy="578.113" rx="12.6644" ry="10.4795" fill="#94AB13"/>
<ellipse cx="657" cy="576.819" rx="24" ry="22.5" fill="#768A05"/>
<ellipse cx="657" cy="576.819" rx="24" ry="22.5" fill="#768A05"/>
<ellipse cx="653.055" cy="569.113" rx="14.137" ry="10.4795" fill="#94AB13"/>
<ellipse cx="695.5" cy="574.819" rx="28.5" ry="26.5" fill="#768A05"/>
<ellipse cx="695.5" cy="574.819" rx="28.5" ry="26.5" fill="#768A05"/>
<ellipse cx="690.815" cy="565.744" rx="16.7877" ry="12.3425" fill="#94AB13"/>
<ellipse cx="749.5" cy="598.319" rx="20.5" ry="20" fill="#768A05"/>
<ellipse cx="749.5" cy="598.319" rx="20.5" ry="20" fill="#768A05"/>
<ellipse cx="746.13" cy="591.47" rx="12.0753" ry="9.31507" fill="#94AB13"/>
<ellipse cx="728.5" cy="576.819" rx="20.5" ry="18.5" fill="#768A05"/>
<ellipse cx="738" cy="620.319" rx="14" ry="12" fill="#768A05"/>
<ellipse cx="749" cy="636.819" rx="11" ry="10.5" fill="#768A05"/>
<ellipse cx="749" cy="636.819" rx="11" ry="10.5" fill="#768A05"/>
<ellipse cx="747.192" cy="633.223" rx="6.47945" ry="4.89041" fill="#94AB13"/>
<circle cx="286.5" cy="579.819" r="30.5" fill="#768A05"/>
<ellipse cx="281.486" cy="569.525" rx="17.9658" ry="14.2055" fill="#94AB13"/>
<ellipse cx="373.5" cy="587.319" rx="26.5" ry="28" fill="#768A05"/>
<ellipse cx="369.144" cy="577.73" rx="15.6096" ry="13.0411" fill="#94AB13"/>
<ellipse cx="469.5" cy="590.319" rx="26.5" ry="28" fill="#768A05"/>
<ellipse cx="465.144" cy="580.73" rx="15.6096" ry="13.0411" fill="#94AB13"/>
<circle cx="546" cy="635.319" r="14" fill="#768A05"/>
<ellipse cx="273" cy="606.319" rx="14" ry="12" fill="#768A05"/>
<ellipse cx="277" cy="626.319" rx="13" ry="12" fill="#768A05"/>
<path d="M285.422 127.849L360.416 126.901L265.055 178.111L192.061 179.034L285.422 127.849Z" fill="#CF571B"/>
<path d="M192.061 179.034L265.055 178.111L265.175 187.61C265.43 207.767 249.296 224.314 229.14 224.569C208.983 224.823 192.436 208.69 192.181 188.533L192.061 179.034Z" fill="#B43D03"/>
<path d="M358.416 126.927L433.41 125.979L338.049 177.188L265.055 178.111L358.416 126.927Z" fill="white"/>
<path d="M265.055 178.111L338.049 177.188L338.17 186.687C338.424 206.844 322.291 223.391 302.134 223.646C281.977 223.901 265.43 207.767 265.175 187.61L265.055 178.111Z" fill="#E2E2E2"/>
<path d="M431.41 126.004L506.404 125.056L411.044 176.265L338.049 177.188L431.41 126.004Z" fill="#CF571B"/>
<path d="M338.049 177.188L411.044 176.265L411.164 185.765C411.418 205.921 395.285 222.468 375.128 222.723C354.971 222.978 338.424 206.844 338.17 186.687L338.049 177.188Z" fill="#B43D03"/>
<path d="M504.404 125.081L579.398 124.133L484.038 175.343L411.044 176.265L504.404 125.081Z" fill="white"/>
<path d="M411.044 176.265L484.038 175.343L484.158 184.842C484.413 204.999 468.279 221.546 448.122 221.8C427.965 222.055 411.418 205.921 411.164 185.765L411.044 176.265Z" fill="#E2E2E2"/>
<path d="M577.398 124.158L652.392 123.21L557.032 174.42L484.038 175.343L577.398 124.158Z" fill="#CF571B"/>
<path d="M484.038 175.343L557.032 174.42L557.152 183.919C557.407 204.076 541.273 220.623 521.116 220.878C500.96 221.132 484.413 204.999 484.158 184.842L484.038 175.343Z" fill="#B43D03"/>
<path d="M650.392 123.236L725.386 122.288L630.026 173.497L557.032 174.42L650.392 123.236Z" fill="white"/>
<path d="M557.032 174.42L630.026 173.497L630.146 182.996C630.401 203.153 614.267 219.7 594.11 219.955C573.954 220.21 557.407 204.076 557.152 183.919L557.032 174.42Z" fill="#E2E2E2"/>
<path d="M723.387 122.313L798.381 121.365L703.02 172.574L630.026 173.497L723.387 122.313Z" fill="#CF571B"/>
<path d="M630.026 173.497L703.02 172.574L703.14 182.074C703.395 202.23 687.261 218.777 667.105 219.032C646.948 219.287 630.401 203.153 630.146 182.996L630.026 173.497Z" fill="#B43D03"/>
<rect x="277" y="98.319" width="730" height="34" fill="white"/>
<path d="M791 98.6807L1013.5 96V132.319H791V98.6807Z" fill="#E2E2E2"/>
</svg>
